HIERARCHY
ROOT Armature
{
  OFFSET 1.9679 50.7869 13.0653
  CHANNELS 6 Xposition Yposition Zposition Zrotation Xrotation Yrotation
  JOINT Core
  {
    OFFSET -0.635206 16.8572 -51.0592
    CHANNELS 6 Xposition Yposition Zposition Zrotation Xrotation Yrotation
    JOINT FrontLegIK.L
    {
      OFFSET 10.7636 40.3514 -10.2983
      CHANNELS 6 Xposition Yposition Zposition Zrotation Xrotation Yrotation
      JOINT FrontPaw.L
      {
        OFFSET 0 1.73155e-005 0
        CHANNELS 6 Xposition Yposition Zposition Zrotation Xrotation Yrotation
        End Site
        {
          OFFSET 0 4.33935 0
        }
      }
      JOINT FrontLegIKPole.L
      {
        OFFSET 0 27.4489 11.7029
        CHANNELS 6 Xposition Yposition Zposition Zrotation Xrotation Yrotation
        End Site
        {
          OFFSET 0 6.85387 0
        }
      }
    }
    JOINT BackLegIK.L
    {
      OFFSET 14.1749 -5.27545 -3.7701
      CHANNELS 6 Xposition Yposition Zposition Zrotation Xrotation Yrotation
      JOINT BackPaw.L
      {
        OFFSET 0 -1.20246e-005 1.26259e-005
        CHANNELS 6 Xposition Yposition Zposition Zrotation Xrotation Yrotation
        End Site
        {
          OFFSET 0 4.80673 0
        }
      }
      JOINT BackLegIKPole.L
      {
        OFFSET 0.227833 17.573 11.6015
        CHANNELS 6 Xposition Yposition Zposition Zrotation Xrotation Yrotation
        End Site
        {
          OFFSET 0 5.63838 0
        }
      }
    }
    JOINT BackLegIK.R
    {
      OFFSET -12.9044 -19.1551 -5.86817
      CHANNELS 6 Xposition Yposition Zposition Zrotation Xrotation Yrotation
      JOINT BackPaw.R
      {
        OFFSET 0 0 0
        CHANNELS 6 Xposition Yposition Zposition Zrotation Xrotation Yrotation
        End Site
        {
          OFFSET 0 4.80673 0
        }
      }
      JOINT BackLegIKPole.R
      {
        OFFSET -0.227834 17.573 11.6014
        CHANNELS 6 Xposition Yposition Zposition Zrotation Xrotation Yrotation
        End Site
        {
          OFFSET 0 5.63838 0
        }
      }
    }
    JOINT FrontLegIK.R
    {
      OFFSET -9.4932 30.6679 -2.7129
      CHANNELS 6 Xposition Yposition Zposition Zrotation Xrotation Yrotation
      JOINT FrontPaw.R
      {
        OFFSET 0 0 0
        CHANNELS 6 Xposition Yposition Zposition Zrotation Xrotation Yrotation
        End Site
        {
          OFFSET 0 4.33935 0
        }
      }
      JOINT FrontLegIKPole.R
      {
        OFFSET 0 27.4489 11.7029
        CHANNELS 6 Xposition Yposition Zposition Zrotation Xrotation Yrotation
        End Site
        {
          OFFSET 0 6.85387 0
        }
      }
    }
    JOINT SpineCtrl
    {
      OFFSET 0.635178 21.1139 -50.8686
      CHANNELS 6 Xposition Yposition Zposition Zrotation Xrotation Yrotation
      JOINT Spine2.001
      {
        OFFSET 0 0 0
        CHANNELS 6 Xposition Yposition Zposition Zrotation Xrotation Yrotation
        JOINT Spine2
        {
          OFFSET 0 12.1749 0
          CHANNELS 6 Xposition Yposition Zposition Zrotation Xrotation Yrotation
          JOINT Spine1
          {
            OFFSET 0 12.1749 0
            CHANNELS 6 Xposition Yposition Zposition Zrotation Xrotation Yrotation
            JOINT TailBottom
            {
              OFFSET 0 48.2991 5.34964
              CHANNELS 6 Xposition Yposition Zposition Zrotation Xrotation Yrotation
              End Site
              {
                OFFSET 0 0 0
              }
            }
            JOINT Tail1
            {
              OFFSET -0.574857 14.3966 0.537233
              CHANNELS 6 Xposition Yposition Zposition Zrotation Xrotation Yrotation
              JOINT Tail2
              {
                OFFSET 0 7.84149 0
                CHANNELS 6 Xposition Yposition Zposition Zrotation Xrotation Yrotation
                JOINT Tail3
                {
                  OFFSET 0 9.03055 0
                  CHANNELS 6 Xposition Yposition Zposition Zrotation Xrotation Yrotation
                  JOINT Tail4
                  {
                    OFFSET 0 8.20515 0
                    CHANNELS 6 Xposition Yposition Zposition Zrotation Xrotation Yrotation
                    JOINT Tail5
                    {
                      OFFSET 0 9.4978 0
                      CHANNELS 6 Xposition Yposition Zposition Zrotation Xrotation Yrotation
                      JOINT Tail6
                      {
                        OFFSET 0 6.51884 0
                        CHANNELS 6 Xposition Yposition Zposition Zrotation Xrotation Yrotation
                        End Site
                        {
                          OFFSET 0 6.10884 0
                        }
                      }
                    }
                  }
                }
              }
            }
            JOINT Bone
            {
              OFFSET 33.4069 38.6443 -2.41513
              CHANNELS 6 Xposition Yposition Zposition Zrotation Xrotation Yrotation
              JOINT TailTop
              {
                OFFSET 0 2.50112e-005 0
                CHANNELS 6 Xposition Yposition Zposition Zrotation Xrotation Yrotation
                End Site
                {
                  OFFSET 0 0 0
                }
              }
              JOINT Bone_end
              {
                OFFSET 0 12.2515 0
                CHANNELS 6 Xposition Yposition Zposition Zrotation Xrotation Yrotation
                End Site
                {
                  OFFSET 0 0 0
                }
              }
            }
            JOINT BackLeg1.L
            {
              OFFSET -1.91713 6.86269 -1.74095
              CHANNELS 6 Xposition Yposition Zposition Zrotation Xrotation Yrotation
              JOINT BackLeg2.L
              {
                OFFSET 0 10.1896 0
                CHANNELS 6 Xposition Yposition Zposition Zrotation Xrotation Yrotation
                JOINT BackLeg3.L
                {
                  OFFSET 0 27.6585 0
                  CHANNELS 6 Xposition Yposition Zposition Zrotation Xrotation Yrotation
                  JOINT BackLeg4.L
                  {
                    OFFSET 0 20.2079 0
                    CHANNELS 6 Xposition Yposition Zposition Zrotation Xrotation Yrotation
                    End Site
                    {
                      OFFSET 0 15.8172 0
                    }
                  }
                }
              }
            }
            JOINT BackLeg1.R
            {
              OFFSET -1.64678 6.86269 1.99861
              CHANNELS 6 Xposition Yposition Zposition Zrotation Xrotation Yrotation
              JOINT BackLeg2.R
              {
                OFFSET 0 11.0754 0
                CHANNELS 6 Xposition Yposition Zposition Zrotation Xrotation Yrotation
                JOINT BackLeg3.R
                {
                  OFFSET 0 25.8903 0
                  CHANNELS 6 Xposition Yposition Zposition Zrotation Xrotation Yrotation
                  JOINT BackLeg4.R
                  {
                    OFFSET 0 20.2079 0
                    CHANNELS 6 Xposition Yposition Zposition Zrotation Xrotation Yrotation
                    End Site
                    {
                      OFFSET 0 15.8171 0
                    }
                  }
                }
              }
            }
          }
        }
      }
      JOINT Spine3
      {
        OFFSET 0 0 0
        CHANNELS 6 Xposition Yposition Zposition Zrotation Xrotation Yrotation
        JOINT Neck
        {
          OFFSET 0 14.1391 0
          CHANNELS 6 Xposition Yposition Zposition Zrotation Xrotation Yrotation
          JOINT Head2
          {
            OFFSET 0 2.99801 0
            CHANNELS 6 Xposition Yposition Zposition Zrotation Xrotation Yrotation
            End Site
            {
              OFFSET 0 6.46164 0
            }
          }
        }
        JOINT HeadIK
        {
          OFFSET -0.175681 20.3563 -7.09281
          CHANNELS 6 Xposition Yposition Zposition Zrotation Xrotation Yrotation
          JOINT Head
          {
            OFFSET 0 0 0
            CHANNELS 6 Xposition Yposition Zposition Zrotation Xrotation Yrotation
            JOINT Ear.L
            {
              OFFSET 11.0469 5.26744 -12.0054
              CHANNELS 6 Xposition Yposition Zposition Zrotation Xrotation Yrotation
              End Site
              {
                OFFSET 0 10.1211 0
              }
            }
            JOINT Ear.R
            {
              OFFSET -8.84548 5.02071 -13.5443
              CHANNELS 6 Xposition Yposition Zposition Zrotation Xrotation Yrotation
              End Site
              {
                OFFSET 0 10.1211 0
              }
            }
          }
          JOINT Eyes.Base
          {
            OFFSET 0.675326 25.1229 -12.9166
            CHANNELS 6 Xposition Yposition Zposition Zrotation Xrotation Yrotation
            End Site
            {
              OFFSET 0 4.98183 0
            }
          }
          JOINT Eyes.Target
          {
            OFFSET 0.675326 25.1229 -12.9166
            CHANNELS 6 Xposition Yposition Zposition Zrotation Xrotation Yrotation
            End Site
            {
              OFFSET 0 10.8137 0
            }
          }
        }
        JOINT FrontLeg1.L
        {
          OFFSET 6.15836 4.29787 -0.644035
          CHANNELS 6 Xposition Yposition Zposition Zrotation Xrotation Yrotation
          JOINT FrontLeg2.L
          {
            OFFSET 0 18.7233 0
            CHANNELS 6 Xposition Yposition Zposition Zrotation Xrotation Yrotation
            JOINT FrontLeg3.L
            {
              OFFSET 0 16.9177 0
              CHANNELS 6 Xposition Yposition Zposition Zrotation Xrotation Yrotation
              JOINT FrontLeg4.L
              {
                OFFSET 0 10.6804 0
                CHANNELS 6 Xposition Yposition Zposition Zrotation Xrotation Yrotation
                End Site
                {
                  OFFSET 0 9.99857 0
                }
              }
            }
          }
        }
        JOINT FrontLeg1.R
        {
          OFFSET -5.81052 4.29786 -0.644037
          CHANNELS 6 Xposition Yposition Zposition Zrotation Xrotation Yrotation
          JOINT FrontLeg2.R
          {
            OFFSET 0 18.8001 0
            CHANNELS 6 Xposition Yposition Zposition Zrotation Xrotation Yrotation
            JOINT FrontLeg3.R
            {
              OFFSET 0 16.9176 0
              CHANNELS 6 Xposition Yposition Zposition Zrotation Xrotation Yrotation
              JOINT FrontLeg4.R
              {
                OFFSET 0 10.6804 0
                CHANNELS 6 Xposition Yposition Zposition Zrotation Xrotation Yrotation
                End Site
                {
                  OFFSET 0 9.99855 0
                }
              }
            }
          }
        }
      }
    }
  }
  JOINT Bone.001
  {
    OFFSET 0 -39.5765 2.47907
    CHANNELS 6 Xposition Yposition Zposition Zrotation Xrotation Yrotation
    End Site
    {
      OFFSET 0 9.50183 0
    }
  }
  JOINT Bone.002
  {
    OFFSET 6.39762 -39.5765 2.47907
    CHANNELS 6 Xposition Yposition Zposition Zrotation Xrotation Yrotation
    End Site
    {
      OFFSET 0 5.86173 0
    }
  }
}
MOTION
Frames:	4
Frame Time:	0.0416667
1.9679 50.7869 13.0653 -180 -90 -180 -0.635206 16.8572 -51.0592 -180 7.01671e-015 180 10.7636 30.6679 -2.71292 -3.63239e-013 7.01671e-015 -180 -2.88591e-006 2.02014e-005 1.92394e-006 -7.3805e-006 -35.3567 180 -1.92394e-006 27.4489 11.7029 -9.03968e-029 1.51661e-021 -1.19844e-021 14.1749 -19.1551 -5.86819 -1.55678e-005 27.0247 -180 1.19136e-006 -9.86019e-006 6.31293e-006 -2.33472e-006 -29.4393 -180 0.227833 17.573 11.6014 -3.4022e-016 -1.06722e-007 3.24637e-012 -12.9044 -5.27545 -3.77008 -1.62119e-006 2.97532 -180 4.06446e-006 -2.88591e-006 1.92394e-006 1.48936e-006 -29.4393 -180 -0.227834 17.573 11.6014 6.01383e-015 0 1.12771e-014 -9.4932 40.3514 -10.2983 -1.83421e-005 31.0073 -180 -1.92394e-006 -2.40492e-006 -5.77182e-006 1.35321e-006 -35.3568 -180 0 27.4489 11.7029 4.81005e-022 -3.18055e-015 -1.0251e-021 0.635178 21.1139 -50.8686 180 -79.4416 180 2.7475e-008 -2.87839e-006 -2.35794e-007 -7.60454e-005 -79.1304 -90.0009 3.70015e-009 12.1749 -8.57828e-014 2.24121e-006 2.69612e-007 3.01466e-007 -7.22062e-009 12.1749 -1.27218e-013 -21.2047 -0.000306906 -4.13418 3.42702e-006 48.2991 5.34964 -0.450778 -21.691 -40.3435 -0.574857 14.3966 0.537233 -58.6671 -4.45037 1.92106 -3.78734e-006 7.8415 -1.50308e-008 -8.15481 -0.470958 -0.0348089 -6.27612e-006 9.03055 2.7807e-007 7.66309 0.44293 -0.0463757 8.87205e-007 8.20515 -1.16489e-007 10.6884 0.619184 -0.0639075 -1.05197e-006 9.4978 7.13962e-008 9.20544 0.535166 -0.0426672 1.82943e-006 6.51884 3.66375e-008 0.0946579 -0.0976881 -0.0564428 33.4069 38.6443 -2.41513 21.2196 1.43955 3.85405 -7.69576e-006 2.50112e-005 1.38283e-006 1.17384e-006 -0.249878 -4.62747e-008 0 12.2515 0 -0 0 9.70628e-020 -1.91713 6.86269 -1.74095 39.2826 -26.2641 -127.853 3.60739e-007 10.1896 -1.02209e-006 -132.732 69.0342 -90.5871 1.20246e-007 27.6585 -1.5632e-006 -150.272 68.5196 165.261 2.40492e-007 20.2079 3.58362e-015 -0.986589 -69.9405 1.13417 -1.64678 6.86269 1.99861 50.3492 29.5578 -52.5442 -3.60739e-007 11.0754 -1.68345e-006 114.354 75.05 100.917 -1.08222e-006 25.8903 -2.94603e-006 110.839 83.9549 -127.711 7.36508e-007 20.2079 4.80985e-007 16.3915 -88.7238 14.211 2.74773e-008 -1.90891e-006 -5.51441e-007 6.98365e-005 78.912 -5.73702e-005 2.29799e-013 14.1391 8.95904e-013 10.7139 -50.9196 17.5105 4.50923e-008 2.99801 6.98931e-007 -7.57663 5.13327 -10.7608 -0.175681 20.3563 -7.09281 -0.631438 39.2148 3.56413 5.56139e-007 -5.14816e-006 -5.82912e-007 -0.184782 0.630238 1.26632 11.0469 5.26744 -12.0054 -80.468 -53.9038 -171.486 -8.84548 5.02071 -13.5443 79.382 -62.6168 168.546 0.675326 25.1229 -12.9166 10.3641 72.1294 169.636 0.675326 25.1229 -12.9166 10.3637 72.1295 169.636 6.15836 4.29787 -0.644035 -48.4226 73.5339 44.3583 -1.20246e-006 18.7233 -1.89388e-006 6.90883 62.2682 6.03702 2.817e-007 16.9177 1.99351e-006 -0.000150626 -35.0239 -5.37569e-005 7.43472e-007 10.6804 -6.09025e-007 -4.83912e-005 -11.4901 -6.35723e-005 -5.81052 4.29786 -0.644037 50.7972 72.7593 -48.5754 2.40492e-007 18.8001 1.34525e-006 -11.2714 65.8203 -2.20102 -2.55909e-007 16.9176 9.97115e-007 -0.00026429 -64.7745 4.02915e-005 -1.07419e-007 10.6804 -1.21467e-007 -9.89704e-005 -33.9667 -0.000170283 4.20862e-006 -39.5765 2.47907 -180 90 -180 6.39762 -39.5765 2.47907 -180 90 -180 
1.9679 50.7869 13.0653 -180 -90 -180 -0.635206 16.8572 -51.0592 -180 7.01671e-015 180 10.7636 29.3767 -2.71292 -3.63239e-013 7.01671e-015 -180 -2.93401e-006 2.00571e-005 1.82774e-006 -7.3805e-006 -35.3567 180 -1.92394e-006 27.4489 11.7029 -9.03968e-029 1.51661e-021 -1.19844e-021 14.1749 -19.8007 -6.19098 -1.76212e-005 30 -180 1.19126e-006 -9.96841e-006 6.62857e-006 -2.33463e-006 -29.4393 -180 0.227833 17.573 11.6014 -3.57232e-016 -1.12058e-007 3.24648e-012 -12.9044 -5.27545 -2.96312 -3.49222e-008 7.01671e-015 -180 4.2088e-006 -2.93401e-006 1.82774e-006 1.48929e-006 -29.4393 -180 -0.227834 17.573 11.6014 5.99646e-015 1.51661e-021 1.12048e-014 -9.4932 42.2881 -10.7825 -1.76193e-005 30 -180 -1.87584e-006 -2.38087e-006 -5.86801e-006 1.35321e-006 -35.3568 -180 -1.79181e-015 27.4489 11.7029 -4.33587e-022 6.36111e-015 -7.56099e-022 0.635178 21.0449 -50.8686 180 -79.4416 180 2.7475e-008 -2.87651e-006 -2.37532e-007 -7.60454e-005 -79.1304 -90.0009 3.88825e-009 12.1749 -9.3174e-014 2.24121e-006 2.69612e-007 3.01466e-007 -7.23801e-009 12.1749 -1.20947e-013 -21.2047 -0.000306906 -4.13418 3.42401e-006 48.2991 5.34964 -0.450778 -21.691 -40.3435 -0.510303 14.5712 0.532566 -58.6671 -4.45037 1.92106 -3.76924e-006 7.8415 -1.50308e-008 -8.15481 -0.470958 -0.0348089 -6.17687e-006 9.03055 2.81451e-007 7.66309 0.44293 -0.0463757 1.0075e-006 8.20515 -1.19495e-007 10.6884 0.619184 -0.0639075 -9.3168e-007 9.4978 6.72628e-008 9.20544 0.535167 -0.0426672 1.75725e-006 6.51884 3.17995e-008 0.0946576 -0.0976885 -0.0564426 33.4069 38.6443 -2.41513 21.2196 1.43955 3.85405 -7.31097e-006 2.50112e-005 1.3678e-006 1.13716e-006 -0.249878 -4.62514e-008 1.43345e-014 12.2515 2.23976e-016 -0 0 9.70628e-020 -1.91713 6.86269 -1.74095 39.2826 -26.2641 -127.853 3.30677e-007 10.1896 -1.03111e-006 -132.732 69.0342 -90.5871 5.41108e-008 27.6585 -1.47903e-006 -150.958 67.7249 165.851 2.49511e-007 20.2079 1.05215e-008 -0.942572 -69.0833 1.1754 -1.64678 6.86269 1.99861 50.3492 29.5578 -52.5442 -3.54726e-007 11.0754 -1.59927e-006 114.354 75.05 100.917 -1.08823e-006 25.8903 -2.90094e-006 92.4812 84.8608 -109.474 7.58302e-007 20.2079 4.83991e-007 3.92676 -84.7549 1.75889 2.74773e-008 -1.90891e-006 -5.53178e-007 6.98365e-005 78.912 -5.73702e-005 2.35175e-013 14.1391 -6.01141e-009 10.7139 -50.9196 17.5105 5.18562e-008 2.99801 6.59099e-007 -7.57664 5.13327 -10.7608 -0.175681 20.3563 -7.09281 -0.631438 39.2148 3.56413 5.4712e-007 -4.97996e-006 -5.47848e-007 -0.184782 0.630238 1.26632 11.0469 5.26744 -12.0054 -80.468 -53.9038 -171.486 -8.84548 5.02071 -13.5443 79.382 -62.6168 168.546 0.675326 25.1229 -12.9166 10.3641 72.1294 169.636 0.675326 25.1229 -12.9166 10.3637 72.1295 169.636 6.15836 4.29787 -0.644035 -48.4226 73.5339 44.3583 -1.17841e-006 18.7233 -1.94198e-006 6.69704 63.1719 6.22526 2.94259e-007 16.9177 1.96384e-006 -0.00014904 -33.6065 -5.28691e-005 7.28502e-007 10.6804 -6.28837e-007 -4.72806e-005 -10.5017 -6.33624e-005 -5.81052 4.29786 -0.644037 50.7972 72.7593 -48.5754 2.52517e-007 18.8001 1.3088e-006 -11.6204 61.4805 -1.88808 -2.78281e-007 16.9176 1.01014e-006 -0.000252441 -64.5796 4.92098e-005 -1.22013e-007 10.6804 -1.43294e-007 -9.8491e-005 -33.8108 -0.000169988 4.20862e-006 -39.5765 2.47907 -180 90 -180 6.39762 -39.5765 2.47907 -180 90 -180 
1.9679 50.7869 13.0653 -180 -90 -180 -0.635206 16.8572 -51.0592 -180 7.01671e-015 180 10.7636 28.7312 -3.0357 -1.58618e-006 2.97532 -180 -2.98211e-006 1.99128e-005 1.73155e-006 -7.3805e-006 -35.3567 180 -1.92394e-006 27.4489 11.7029 6.42902e-024 0 -3.00325e-022 14.1749 -18.3482 -6.67515 -1.76213e-005 30 -180 1.19116e-006 -1.00766e-005 6.94422e-006 -2.33454e-006 -29.4393 -180 0.227833 17.573 11.6014 -3.74243e-016 -1.17394e-007 3.24659e-012 -12.9044 -6.08241 -2.96312 -3.48271e-008 7.01671e-015 -180 4.35313e-006 -2.98211e-006 1.73155e-006 1.48923e-006 -29.4393 -180 -0.227834 17.573 11.6014 5.9791e-015 0 1.11325e-014 -9.4932 42.2881 -9.97553 -1.5566e-005 27.0247 -180 -1.82774e-006 -2.35683e-006 -5.96421e-006 1.35321e-006 -35.3568 -180 0 27.4489 11.7029 -5.81268e-022 3.18055e-015 -9.96845e-022 0.635178 21.1139 -50.8686 180 -79.4416 180 2.7475e-008 -2.87464e-006 -2.3927e-007 -7.60454e-005 -79.1304 -90.0009 4.07636e-009 12.1749 -1.00565e-013 2.24121e-006 2.69612e-007 3.01466e-007 -7.25541e-009 12.1749 -1.14228e-013 -21.2047 -0.000306906 -4.13418 3.421e-006 48.2991 5.34964 -0.450778 -21.691 -40.3435 -0.446053 14.7449 0.527921 -58.6671 -4.45037 1.92106 -3.75114e-006 7.8415 -1.50308e-008 -8.15481 -0.470958 -0.0348089 -6.07763e-006 9.03055 2.84833e-007 7.66309 0.44293 -0.0463757 1.12779e-006 8.20515 -1.22501e-007 10.6884 0.619184 -0.0639075 -8.11388e-007 9.4978 6.31293e-008 9.20544 0.535167 -0.0426672 1.68507e-006 6.51884 2.69615e-008 0.0904687 -0.0981933 -0.0564425 33.4069 38.6443 -2.41513 21.2196 1.43955 3.85405 -6.92618e-006 2.50112e-005 1.35277e-006 1.10047e-006 -0.249878 -4.62282e-008 0 12.2515 2.23976e-016 -0 0 9.70628e-020 -1.91713 6.86269 -1.74095 39.2826 -26.2641 -127.853 3.00615e-007 10.1896 -1.04013e-006 -132.732 69.0342 -90.5871 -1.20246e-008 27.6585 -1.39486e-006 -151.811 66.3943 166.645 2.58529e-007 20.2079 2.10431e-008 -1.45612 -76.1031 0.684447 -1.64678 6.86269 1.99861 50.3492 29.5578 -52.5442 -3.48714e-007 11.0754 -1.5151e-006 114.354 75.05 100.917 -1.09424e-006 25.8903 -2.85585e-006 108.265 84.0802 -125.232 7.80097e-007 20.2079 4.86997e-007 3.63297 -84.3333 1.46594 2.74773e-008 -1.90891e-006 -5.54916e-007 6.98365e-005 78.912 -5.73702e-005 2.40774e-013 14.1391 -1.20237e-008 10.7139 -50.9196 17.5106 5.862e-008 2.99801 6.19268e-007 -7.57665 5.13328 -10.7608 -0.175681 20.3563 -7.09281 -0.631438 39.2148 3.56413 5.38102e-007 -4.81177e-006 -5.12784e-007 -0.184782 0.630238 1.26632 11.0469 5.26744 -12.0054 -80.468 -53.9038 -171.486 -8.84548 5.02071 -13.5443 79.382 -62.6168 168.546 0.675326 25.1229 -12.9166 10.3641 72.1294 169.636 0.675326 25.1229 -12.9166 10.3637 72.1295 169.636 6.15836 4.29787 -0.644035 -48.4226 73.5339 44.3583 -1.15436e-006 18.7233 -1.99007e-006 6.04787 65.6272 6.81083 3.06819e-007 16.9177 1.93417e-006 -0.000150932 -35.2706 -5.39452e-005 7.13531e-007 10.6804 -6.4865e-007 -4.8596e-005 -11.6625 -6.36172e-005 -5.81052 4.29786 -0.644037 50.7972 72.7593 -48.5754 2.64542e-007 18.8001 1.27235e-006 -11.6939 60.3777 -1.8238 -3.00654e-007 16.9176 1.02316e-006 -0.000245161 -62.3544 5.40425e-005 -1.36607e-007 10.6804 -1.6512e-007 -9.23385e-005 -32.0303 -0.000166618 4.20862e-006 -39.5765 2.47907 -180 90 -180 6.39762 -39.5765 2.47907 -180 90 -180 
1.9679 50.7869 13.0653 -180 -90 -180 -0.635206 16.8572 -51.0592 -180 7.01671e-015 180 10.7636 28.0856 -3.35848 -3.18976e-006 5.967 -180 -3.0302e-006 1.97685e-005 1.63535e-006 -7.3805e-006 -35.3567 180 -1.92394e-006 27.4489 11.7029 -4.82894e-023 0 -9.00274e-022 14.1749 -16.8956 -7.15932 -1.76214e-005 30 -180 1.19107e-006 -1.01848e-005 7.25987e-006 -2.33445e-006 -29.4393 -180 0.227833 17.573 11.6014 -3.91254e-016 -1.2273e-007 3.2467e-012 -12.9044 -6.88937 -2.96312 -3.47319e-008 7.01671e-015 -180 4.49747e-006 -3.0302e-006 1.63535e-006 1.48916e-006 -29.4393 -180 -0.227834 17.573 11.6014 5.96174e-015 0 1.10603e-014 -9.4932 42.2881 -9.16857 -1.36084e-005 24.033 -180 -1.77964e-006 -2.33278e-006 -6.06041e-006 1.35321e-006 -35.3568 -180 0 27.4489 11.7029 1.66608e-022 0 -1.86792e-021 0.635178 21.3216 -50.6825 180 -79.4416 180 2.7475e-008 -2.87276e-006 -2.41008e-007 -7.60454e-005 -79.1304 -90.0009 4.26447e-009 12.1749 -1.07732e-013 2.24121e-006 2.69612e-007 3.01466e-007 -7.27281e-009 12.1749 -1.0818e-013 -21.2047 -0.000306906 -4.13418 3.418e-006 48.2991 5.34964 -0.450778 -21.691 -40.3435 -0.381498 14.9195 0.523254 -58.6671 -4.45037 1.92106 -3.73303e-006 7.8415 -1.50308e-008 -8.15481 -0.470958 -0.0348089 -5.97838e-006 9.03055 2.88215e-007 7.66309 0.44293 -0.0463757 1.24808e-006 8.20515 -1.25507e-007 10.6884 0.619184 -0.0639075 -6.91096e-007 9.4978 5.89958e-008 9.20544 0.535167 -0.0426672 1.6129e-006 6.51884 2.21234e-008 0.0946576 -0.0976886 -0.0564423 33.4069 38.6443 -2.41513 21.2196 1.43955 3.85405 -6.54139e-006 2.50112e-005 1.33774e-006 1.06379e-006 -0.249878 -4.62049e-008 0 12.2515 2.23976e-016 -0 0 9.70628e-020 -1.91713 6.86269 -1.74095 39.2826 -26.2641 -127.853 2.70554e-007 10.1896 -1.04915e-006 -132.732 69.0342 -90.5871 -7.816e-008 27.6585 -1.31068e-006 -152.58 65.0733 167.356 2.67548e-007 20.2079 3.15646e-008 -2.77814 -82.609 -0.616921 -1.64678 6.86269 1.99861 50.3492 29.5578 -52.5442 -3.42702e-007 11.0754 -1.43093e-006 114.354 75.05 100.917 -1.10025e-006 25.8903 -2.81075e-006 122.148 82.6345 -139.089 8.01892e-007 20.2079 4.90003e-007 3.58177 -84.3188 1.41557 2.74773e-008 -1.90891e-006 -5.56654e-007 6.98365e-005 78.912 -5.73702e-005 2.46598e-013 14.1391 -1.8036e-008 10.7139 -50.9196 17.5106 6.53839e-008 2.99801 5.79436e-007 -7.57666 5.13329 -10.7608 -0.175681 20.3563 -7.09281 -0.631438 39.2148 3.56413 5.29083e-007 -4.64358e-006 -4.7772e-007 -0.184782 0.630238 1.26632 11.0469 5.26744 -12.0054 -80.468 -53.9038 -171.486 -8.84548 5.02071 -13.5443 79.382 -62.6168 168.546 0.675326 25.1229 -12.9166 10.3641 72.1294 169.636 0.675326 25.1229 -12.9166 10.3637 72.1295 169.636 6.15836 4.29787 -0.644035 -48.4226 73.5339 44.3583 -1.13031e-006 18.7233 -2.03817e-006 5.06591 68.6225 7.71588 3.19378e-007 16.9177 1.9045e-006 -0.000153341 -37.296 -5.53766e-005 6.98561e-007 10.6804 -6.68463e-007 -5.02166e-005 -13.0801 -6.39663e-005 -5.81052 4.29786 -0.644037 50.7972 72.7593 -48.5754 2.76566e-007 18.8001 1.23591e-006 -11.7327 59.7649 -1.79022 -3.23027e-007 16.9176 1.03618e-006 -0.00023774 -60.5644 5.90666e-005 -1.51201e-007 10.6804 -1.86946e-007 -8.75801e-005 -30.5988 -0.00016412 4.20862e-006 -39.5765 2.47907 -180 90 -180 6.39762 -39.5765 2.47907 -180 90 -180 
